<?xml version="1.0" encoding="UTF-8" standalone="no"?>
<!-- Created with Inkscape (http://www.inkscape.org/) -->

<svg
   width="313.93958mm"
   height="120mm"
   viewBox="0 0 313.93956 120.00002"
   version="1.1"
   id="svg1"
   xml:space="preserve"
   inkscape:export-filename="RepairBar.svg"
   inkscape:export-xdpi="96"
   inkscape:export-ydpi="96"
   sodipodi:docname="EmptyRepairBar.svg"
   inkscape:version="1.3.1 (91b66b0783, 2023-11-16)"
   xmlns:inkscape="http://www.inkscape.org/namespaces/inkscape"
   xmlns:sodipodi="http://sodipodi.sourceforge.net/DTD/sodipodi-0.dtd"
   xmlns="http://www.w3.org/2000/svg"
   xmlns:svg="http://www.w3.org/2000/svg"><sodipodi:namedview
     id="namedview1"
     pagecolor="#ffffff"
     bordercolor="#000000"
     borderopacity="0.25"
     inkscape:showpageshadow="2"
     inkscape:pageopacity="0.0"
     inkscape:pagecheckerboard="0"
     inkscape:deskcolor="#d1d1d1"
     inkscape:document-units="mm"
     showguides="false"
     inkscape:zoom="0.5"
     inkscape:cx="630"
     inkscape:cy="515"
     inkscape:window-width="1920"
     inkscape:window-height="1009"
     inkscape:window-x="-8"
     inkscape:window-y="-8"
     inkscape:window-maximized="1"
     inkscape:current-layer="layer1" /><defs
     id="defs1"><rect
       x="12"
       y="78"
       width="573"
       height="426"
       id="rect3" /></defs><g
     inkscape:label="Layer 1"
     inkscape:groupmode="layer"
     id="layer1"
     transform="translate(-50.83313,-7.2690077)"><path
       id="rect1"
       style="display:inline;opacity:1;fill:#000000;fill-opacity:0.501961;stroke:#333333;stroke-width:3;stroke-linecap:square;stroke-miterlimit:3.3"
       d="M 52.312667,8.7690077 350.99059,8.7631612 363.25225,29.697613 V 47.105689 H 52.312667 Z"
       inkscape:label="BG"
       sodipodi:nodetypes="cccccc" /><path
       id="rect1-1-5"
       style="display:none;fill:#1eff00;stroke:none;stroke-width:0.309513;stroke-linecap:square;stroke-linejoin:bevel;stroke-miterlimit:3.3;stroke-opacity:0.90162"
       inkscape:label="ItemBar"
       d="m 53.808941,10.26972 296.321139,-0.0069 11.62015,19.839311 0.003,15.505437 -307.944289,10e-4 z"
       sodipodi:nodetypes="cccccc" /><path
       id="path2"
       style="display:inline;fill:#333333;fill-opacity:1;stroke:#333333;stroke-width:1.18472;stroke-miterlimit:3.3"
       d="M 51.425496,48.013331 51.425968,8.2670263 H 86.481215 L 99.219797,29.7295 V 48.013331 Z M 61.857725,45.021534 H 79.5215 L 88.399914,29.681994 79.5215,14.342452 H 61.857725 l -8.878415,15.339542 3.916739,6.766989 4.578428,-4.70038 c 0.960632,-0.923693 1.598034,-2.49407 1.912085,-4.710911 0.314054,-2.216848 0.932803,-3.786973 1.856495,-4.710665 0.960635,-0.960626 2.04153,-1.579633 3.242317,-1.856742 1.200784,-0.277032 2.650845,-0.286308 4.350437,-0.02767 l -4.932531,4.877189 0.831392,4.876944 4.932535,0.831394 4.821596,-4.932533 c 0.258725,1.921261 0.249451,3.427016 -0.02767,4.516958 -0.27712,1.089964 -0.895865,2.115159 -1.856495,3.075795 -0.960627,0.923682 -2.540221,1.54269 -4.738581,1.85674 -2.198382,0.314052 -3.777701,0.951206 -4.738342,1.91184 l -6.111175,6.111182 z"
       inkscape:label="Tag" /></g></svg>
