<?xml version="1.0" encoding="UTF-8" standalone="no"?>
<!-- Created with Inkscape (http://www.inkscape.org/) -->

<svg
   width="956.57117mm"
   height="109.31468mm"
   viewBox="0 0 956.57119 109.31468"
   version="1.1"
   id="svg1"
   xml:space="preserve"
   inkscape:export-filename="HPBarCutout.png"
   inkscape:export-xdpi="96"
   inkscape:export-ydpi="96"
   sodipodi:docname="HPBarCutout.svg"
   inkscape:version="1.3.1 (91b66b0783, 2023-11-16)"
   xmlns:inkscape="http://www.inkscape.org/namespaces/inkscape"
   xmlns:sodipodi="http://sodipodi.sourceforge.net/DTD/sodipodi-0.dtd"
   xmlns="http://www.w3.org/2000/svg"
   xmlns:svg="http://www.w3.org/2000/svg"><sodipodi:namedview
     id="namedview1"
     pagecolor="#ffffff"
     bordercolor="#000000"
     borderopacity="0.25"
     inkscape:showpageshadow="2"
     inkscape:pageopacity="0.0"
     inkscape:pagecheckerboard="0"
     inkscape:deskcolor="#d1d1d1"
     inkscape:document-units="mm"
     inkscape:zoom="4"
     inkscape:cx="2616.5"
     inkscape:cy="399.125"
     inkscape:window-width="1920"
     inkscape:window-height="1009"
     inkscape:window-x="1912"
     inkscape:window-y="-8"
     inkscape:window-maximized="1"
     inkscape:current-layer="layer1" /><defs
     id="defs1" /><g
     inkscape:label="Layer 1"
     inkscape:groupmode="layer"
     id="layer1"
     transform="translate(105.56806,-94.063911)"><path
       id="rect1"
       style="opacity:1;fill:#000000;fill-opacity:0.698039;stroke:#333333;stroke-width:4;stroke-linecap:square;stroke-miterlimit:3.3;stroke-opacity:0.2"
       inkscape:label="BG"
       d="m -103.56818,96.063789 v 29.717051 h 301.52681 v 75.59797 h 651.0445 v -65.5407 L 809.19161,96.063789 Z M 197.95863,201.37881 v 0.91312 z"
       sodipodi:nodetypes="ccccccccccc" /><path
       id="rect1-1"
       style="display:inline;fill:#1f9eff;fill-opacity:0.698039;stroke:none;stroke-width:0.808132;stroke-linecap:square;stroke-linejoin:bevel;stroke-miterlimit:3.3;stroke-opacity:0.90162"
       inkscape:label="ItemBar"
       d="m 808.36416,98.062621 -909.93304,0.0016 0.006,25.712099 301.52251,0.007 v 75.60654 l 647.06766,0.006 -0.0193,-62.7226 z M 195.86045,201.84233 c -303.4807,-108.228015 -303.4807,-108.228015 0,0 z"
       sodipodi:nodetypes="cccccccccc" /><path
       id="path2"
       style="display:inline;opacity:1;fill:#333333;fill-opacity:1;stroke:none;stroke-width:0.689251;stroke-linecap:square;stroke-linejoin:bevel;stroke-miterlimit:3.3;stroke-dasharray:none;stroke-opacity:0.899083"
       inkscape:label="Tag"
       d="m 199.69042,123.78258 0.005,75.8541 h 117.46444 v -41.06615 l -34.48143,-34.78795 z m 27.10345,6.13689 c 0.34261,0.0102 0.68924,0.0327 1.04073,0.0679 3.63155,0.36374 6.62203,1.51843 9.60608,3.70933 1.37925,1.01265 3.77527,3.40389 4.57175,4.56267 0.30535,0.44422 0.59764,0.808 0.64969,0.808 0.052,0 0.34394,-0.36718 0.64878,-0.81557 0.80264,-1.18051 3.47453,-3.7934 4.91883,-4.81022 1.44561,-1.01774 3.65997,-2.13625 5.27474,-2.66443 2.7241,-0.89103 6.22847,-1.10734 8.43696,-0.52088 2.91224,0.77333 5.11635,2.03964 7.3162,4.2031 2.24519,2.20801 3.54744,4.36387 4.36689,7.23066 3.38384,11.83778 -3.97277,27.28832 -20.44755,42.94436 -3.83079,3.64041 -10.04032,8.87918 -10.51485,8.8711 -0.11696,-0.002 -0.81863,-0.4873 -1.55932,-1.07866 -6.65659,-5.31469 -12.77929,-11.21802 -17.50134,-16.87376 -8.4037,-10.0653 -12.69363,-19.50484 -12.69363,-27.93239 0,-3.3435 0.60967,-6.13388 1.9157,-8.7662 1.56504,-3.1544 3.93165,-5.58909 7.01005,-7.21245 2.35599,-1.2424 4.56193,-1.79311 6.96029,-1.72266 z" /></g></svg>
