<?xml version="1.0" encoding="UTF-8" standalone="no"?>
<!-- Created with Inkscape (http://www.inkscape.org/) -->

<svg
   width="712.68658mm"
   height="109.3147mm"
   viewBox="0 0 712.6866 109.3147"
   version="1.1"
   id="svg1"
   xml:space="preserve"
   inkscape:export-filename="HeatBar.png"
   inkscape:export-xdpi="96"
   inkscape:export-ydpi="96"
   sodipodi:docname="EmptyHeatBar.svg"
   inkscape:version="1.3.1 (91b66b0783, 2023-11-16)"
   xmlns:inkscape="http://www.inkscape.org/namespaces/inkscape"
   xmlns:sodipodi="http://sodipodi.sourceforge.net/DTD/sodipodi-0.dtd"
   xmlns="http://www.w3.org/2000/svg"
   xmlns:svg="http://www.w3.org/2000/svg"><sodipodi:namedview
     id="namedview1"
     pagecolor="#ffffff"
     bordercolor="#000000"
     borderopacity="0.25"
     inkscape:showpageshadow="2"
     inkscape:pageopacity="0.0"
     inkscape:pagecheckerboard="0"
     inkscape:deskcolor="#d1d1d1"
     inkscape:document-units="mm"
     inkscape:zoom="0.25"
     inkscape:cx="1464"
     inkscape:cy="558"
     inkscape:window-width="1920"
     inkscape:window-height="1009"
     inkscape:window-x="3832"
     inkscape:window-y="-8"
     inkscape:window-maximized="1"
     inkscape:current-layer="layer1" /><defs
     id="defs1" /><g
     inkscape:label="Layer 1"
     inkscape:groupmode="layer"
     id="layer1"
     transform="translate(105.56806,-94.063911)"><path
       id="rect1-11"
       style="fill:#000000;fill-opacity:0.5;stroke:#333333;stroke-width:4;stroke-linecap:square;stroke-miterlimit:3.3;stroke-opacity:1"
       inkscape:label="BG"
       d="m -103.56806,201.37861 h 668.87481 l 39.81177,-39.77419 V 96.063911 h -708.68658 z"
       sodipodi:nodetypes="cccccc" /><path
       id="path2-3"
       style="fill:#333333;fill-opacity:1;stroke:none;stroke-width:0.801467;stroke-linecap:square;stroke-linejoin:bevel;stroke-miterlimit:3.3;stroke-dasharray:none;stroke-opacity:0.899083"
       inkscape:label="Tag"
       d="M -105.56289 94.063911 L -105.56806 182.26059 L -9.0623227 182.26059 L 31.036005 141.81242 L 31.036005 94.063911 L -105.56289 94.063911 z M -55.264154 101.22265 C -52.657143 101.22265 -50.459289 102.13231 -48.670758 103.95116 C -46.882228 105.77001 -45.987717 107.98303 -45.987717 110.59003 L -45.987717 147.87613 C -43.986987 149.33121 -42.441064 151.15003 -41.349758 153.33264 C -40.258451 155.51526 -39.712648 157.81924 -39.712648 160.24437 C -39.712648 164.54897 -41.22825 168.21693 -44.259657 171.24835 C -47.291066 174.27975 -50.959555 175.79536 -55.264154 175.79536 C -59.568753 175.79536 -63.236726 174.27975 -66.268133 171.24835 C -69.299541 168.21693 -70.815143 164.54897 -70.815143 160.24437 C -70.815143 157.81924 -70.26934 155.51526 -69.178033 153.33264 C -68.086726 151.15003 -66.540801 149.33121 -64.540073 147.87613 L -64.540073 110.59003 C -64.540073 107.98303 -63.645565 105.77001 -61.857033 103.95116 C -60.068503 102.13231 -57.871164 101.22265 -55.264154 101.22265 z M -39.712648 116.77415 L -27.344411 116.77415 L -27.344411 122.95775 L -39.712648 122.95775 L -39.712648 116.77415 z M -58.355955 129.23282 L -58.355955 151.51363 C -60.235427 152.11991 -61.735867 153.22668 -62.857489 154.83333 C -63.97911 156.43997 -64.540073 158.24365 -64.540073 160.24437 C -64.540073 162.79076 -63.630403 164.97344 -61.811558 166.79229 C -59.992713 168.61113 -57.810536 169.52029 -55.264154 169.52029 C -52.71777 169.52029 -50.535077 168.61113 -48.716233 166.79229 C -46.897389 164.97344 -45.987717 162.79076 -45.987717 160.24437 C -45.987717 158.24365 -46.548681 156.43997 -47.670302 154.83333 C -48.791923 153.22668 -50.292363 152.11991 -52.171836 151.51363 L -52.171836 129.23282 L -58.355955 129.23282 z M -39.712648 132.32514 L -27.344411 132.32514 L -27.344411 138.50926 L -39.712648 138.50926 L -39.712648 132.32514 z "
       transform="translate(-5.6250002e-7)" /></g></svg>
