<?xml version="1.0" encoding="UTF-8" standalone="no"?>
<!-- Created with Inkscape (http://www.inkscape.org/) -->

<svg
   width="420.43457mm"
   height="108.61864mm"
   viewBox="0 0 420.43458 108.61864"
   version="1.1"
   id="svg1"
   xml:space="preserve"
   inkscape:export-filename="EmptyReactorStressBar.svg"
   inkscape:export-xdpi="96"
   inkscape:export-ydpi="96"
   sodipodi:docname="EmptyStructureBar.svg"
   inkscape:version="1.3.1 (91b66b0783, 2023-11-16)"
   xmlns:inkscape="http://www.inkscape.org/namespaces/inkscape"
   xmlns:sodipodi="http://sodipodi.sourceforge.net/DTD/sodipodi-0.dtd"
   xmlns="http://www.w3.org/2000/svg"
   xmlns:svg="http://www.w3.org/2000/svg"><sodipodi:namedview
     id="namedview1"
     pagecolor="#ffffff"
     bordercolor="#000000"
     borderopacity="0.25"
     inkscape:showpageshadow="2"
     inkscape:pageopacity="0.0"
     inkscape:pagecheckerboard="0"
     inkscape:deskcolor="#d1d1d1"
     inkscape:document-units="mm"
     inkscape:zoom="0.35355339"
     inkscape:cx="790.54538"
     inkscape:cy="881.05504"
     inkscape:window-width="1920"
     inkscape:window-height="1009"
     inkscape:window-x="-8"
     inkscape:window-y="-8"
     inkscape:window-maximized="1"
     inkscape:current-layer="layer1" /><defs
     id="defs1" /><g
     inkscape:label="Layer 1"
     inkscape:groupmode="layer"
     id="layer1"
     transform="translate(105.22003,-94.411942)"><rect
       style="opacity:1;fill:#000000;fill-opacity:0.697917;stroke:#333333;stroke-width:3;stroke-linecap:square;stroke-linejoin:miter;stroke-miterlimit:3.3;stroke-dasharray:none;stroke-opacity:1"
       id="rect1"
       width="417.43457"
       height="105.61864"
       x="-103.72003"
       y="95.911942" /><g
       id="g1"
       inkscape:label="Structure"
       style="display:inline;opacity:0.2;fill:#808080"
       transform="matrix(0.96910963,0,0,0.96910963,-3.1820157,2.9934721)"><path
         fill="currentColor"
         d="M 57.832919,98.779115 110.24074,150.37286 57.832919,201.96661 5.4250945,150.37286 Z m 0,90.355205 39.37306,-38.76146 -39.37306,-38.76146 -39.37306,38.76146 z m 0,-65.88125 -4.56888,4.49792 v 45.24375 l 4.56888,4.49791 4.568891,-4.49791 v -45.24375 z m 27.547712,27.11979 -4.568891,-4.49791 H 34.854108 l -4.56889,4.49791 4.56889,4.49792 H 80.81174 Z"
         id="path1-9"
         style="fill:#808080;fill-opacity:1;stroke-width:0.133332" /><path
         fill="currentColor"
         d="m 165.42181,98.779114 52.40783,51.593746 -52.40783,51.59375 -52.40782,-51.59375 z m 0,90.355206 39.37305,-38.76146 -39.37305,-38.76146 -39.37306,38.76146 z m 0,-65.88125 -4.56887,4.49792 v 45.24375 l 4.56887,4.49791 4.56888,-4.49791 v -45.24375 z m 27.54771,27.11979 -4.56889,-4.49791 h -45.95764 l -4.56889,4.49791 4.56889,4.49792 h 45.95764 z"
         id="path1-4"
         style="fill:#808080;fill-opacity:1;stroke-width:0.133332" /><path
         fill="currentColor"
         d="m 273.01069,98.779114 52.40783,51.593746 -52.40783,51.59375 -52.40781,-51.59375 z m 0,90.355206 39.37307,-38.76146 -39.37307,-38.76146 -39.37304,38.76146 z m 0,-65.88125 -4.56887,4.49792 v 45.24375 l 4.56887,4.49791 4.5689,-4.49791 v -45.24375 z m 27.54772,27.11979 -4.5689,-4.49791 H 250.0319 l -4.56889,4.49791 4.56889,4.49792 h 45.95761 z"
         id="path1-0"
         style="fill:#808080;fill-opacity:1;stroke-width:0.133332" /><path
         fill="currentColor"
         d="m -49.755976,98.779114 52.407822,51.593746 -52.407822,51.59375 -52.407814,-51.59375 z m 0,90.355206 39.37306,-38.76146 -39.37306,-38.76146 -39.373052,38.76146 z m 0,-65.88125 -4.56888,4.49792 v 45.24375 l 4.56888,4.49791 4.568891,-4.49791 v -45.24375 z m 27.547712,27.11979 -4.568892,-4.49791 h -45.957631 l -4.568886,4.49791 4.568886,4.49792 h 45.957631 z"
         id="path1"
         style="display:inline;fill:#808080;fill-opacity:1;stroke-width:0.133332" /></g><g
       id="g2"
       inkscape:label="Stress"
       style="display:none;fill:#808080"><path
         fill="currentColor"
         d="m -6.3047555,148.5 q 0,9.12813 -3.6380199,17.52865 -3.6380196,8.40052 -9.5911496,14.35364 -5.953123,5.95313 -14.353644,9.59115 -8.400521,3.63802 -17.528646,3.63802 -9.128125,0 -17.528646,-3.63802 -8.400521,-3.63802 -14.353646,-9.59115 -5.953125,-5.95312 -9.591145,-14.35364 -3.638021,-8.40052 -3.638021,-17.52865 0,-9.12812 3.638021,-17.52864 3.63802,-8.40052 9.591145,-14.35365 5.953125,-5.95312 14.353646,-9.59114 8.400521,-3.63803 17.528646,-3.63803 9.128125,0 17.528646,3.63803 8.400521,3.63802 14.353644,9.59114 5.95313,5.95313 9.5911496,14.35365 3.6380199,8.40052 3.6380199,17.52864 z M -25.883923,122.96771 q -5.027084,-5.15937 -11.443229,-7.87135 -6.416146,-2.71198 -14.089063,-2.71198 -7.672917,0 -14.089062,2.71198 -6.416146,2.71198 -11.44323,7.87135 -5.159375,5.02708 -7.871354,11.44323 -2.711979,6.41615 -2.711979,14.08906 0,7.67292 2.711979,14.08907 2.711979,6.41614 7.871354,11.44322 5.027084,5.15938 11.44323,7.87136 6.416145,2.71198 14.089062,2.71198 7.672917,0 14.089063,-2.71198 6.416145,-2.71198 11.443229,-7.87136 5.159378,-5.02708 7.871358,-11.44322 2.71197,-6.41615 2.71197,-14.08907 0,-7.67291 -2.71197,-14.08906 -2.71198,-6.41615 -7.871358,-11.44323 z M -37.922465,148.5 q 0,3.57188 -1.785937,6.74688 -1.785938,3.175 -4.960938,5.02708 l 6.746875,11.64167 q 6.35,-3.57188 9.988021,-9.85573 3.638021,-6.28386 3.638021,-13.5599 z m -40.613542,0 q 0,7.27604 3.638021,13.5599 3.638021,6.28385 9.988021,9.85573 l 6.746875,-11.64167 q -3.175,-1.85208 -4.960937,-5.02708 -1.785938,-3.175 -1.785938,-6.74688 z m 26.458334,-27.11979 q -3.307292,0.13229 -6.614584,1.05833 -3.307291,0.92605 -6.217708,2.64584 l 6.746875,11.64166 q 1.5875,-0.79375 3.241146,-1.25677 1.653646,-0.46302 3.505729,-0.46302 1.719792,0 3.505729,0.46302 1.785938,0.46302 3.241146,1.25677 l 6.746875,-11.64166 q -3.175,-1.85209 -6.813021,-2.77813 -3.638021,-0.92604 -7.342187,-0.92604 z M -46.918298,148.5 q 0,1.85209 -1.322917,3.175 -1.322917,1.32292 -3.175,1.32292 v 0 q -1.852083,0 -3.175,-1.32292 -1.322917,-1.32291 -1.322917,-3.175 v 0 q 0,-1.85208 1.322917,-3.175 1.322917,-1.32291 3.175,-1.32291 v 0 q 1.852083,0 3.175,1.32291 1.322917,1.32292 1.322917,3.175 z m 4.233333,0 q 0,1.5875 -0.727604,3.37344 -0.727604,1.78594 -1.785938,2.84427 -1.058333,1.05833 -2.84427,1.78594 -1.785938,0.7276 -3.373438,0.7276 -1.5875,0 -3.373437,-0.7276 -1.785938,-0.72761 -2.844271,-1.78594 -1.058334,-1.05833 -1.785938,-2.84427 -0.727604,-1.78594 -0.727604,-3.37344 0,-1.5875 0.727604,-3.37343 0.727604,-1.78594 1.785938,-2.84428 1.058333,-1.05833 2.844271,-1.78593 1.785937,-0.72761 3.373437,-0.72761 1.5875,0 3.373438,0.72761 1.785937,0.7276 2.84427,1.78593 1.058334,1.05834 1.785938,2.84428 0.727604,1.78593 0.727604,3.37343 z m -8.466667,-0.13229 v 0 h -0.132291 v -0.13229 0 h -0.06615 -0.06615 -0.06615 -0.06615 v 0 0.13229 h -0.132291 v 0 0.0661 0.0661 0.0661 0.0661 0 h 0.132291 v 0.1323 0 h 0.06615 0.06615 0.06615 0.06615 v 0 -0.1323 h 0.132291 v 0 -0.0661 -0.0661 -0.0661 z"
         id="path1-5"
         style="display:inline;fill:#808080;fill-opacity:1;stroke:none;stroke-width:0.132292;stroke-opacity:1" /><path
         fill="currentColor"
         d="m 97.972725,148.5 q 0,9.12813 -3.63802,17.52865 -3.63802,8.40052 -9.59115,14.35364 -5.953123,5.95313 -14.353644,9.59115 -8.400521,3.63802 -17.528646,3.63802 -9.128125,0 -17.528646,-3.63802 -8.400521,-3.63802 -14.353646,-9.59115 -5.953125,-5.95312 -9.591145,-14.35364 Q 7.7498063,157.62813 7.7498063,148.5 q 0,-9.12812 3.6380217,-17.52864 3.63802,-8.40052 9.591145,-14.35365 5.953125,-5.95312 14.353646,-9.59114 8.400521,-3.63803 17.528646,-3.63803 9.128125,0 17.528646,3.63803 8.400521,3.63802 14.353644,9.59114 5.95313,5.95313 9.59115,14.35365 3.63802,8.40052 3.63802,17.52864 z M 78.393557,122.96771 q -5.027084,-5.15937 -11.443229,-7.87135 -6.416146,-2.71198 -14.089063,-2.71198 -7.672917,0 -14.089062,2.71198 -6.416146,2.71198 -11.44323,7.87135 -5.159375,5.02708 -7.871354,11.44323 -2.711979,6.41615 -2.711979,14.08906 0,7.67292 2.711979,14.08907 2.711979,6.41614 7.871354,11.44322 5.027084,5.15938 11.44323,7.87136 6.416145,2.71198 14.089062,2.71198 7.672917,0 14.089063,-2.71198 6.416145,-2.71198 11.443229,-7.87136 5.159378,-5.02708 7.871358,-11.44322 2.71197,-6.41615 2.71197,-14.08907 0,-7.67291 -2.71197,-14.08906 -2.71198,-6.41615 -7.871358,-11.44323 z M 66.355015,148.5 q 0,3.57188 -1.785937,6.74688 -1.785938,3.175 -4.960938,5.02708 l 6.746875,11.64167 q 6.35,-3.57188 9.988021,-9.85573 3.638021,-6.28386 3.638021,-13.5599 z m -40.613542,0 q 0,7.27604 3.638021,13.5599 3.638021,6.28385 9.988021,9.85573 l 6.746875,-11.64167 q -3.175,-1.85208 -4.960937,-5.02708 -1.785938,-3.175 -1.785938,-6.74688 z m 26.458334,-27.11979 q -3.307292,0.13229 -6.614584,1.05833 -3.307291,0.92605 -6.217708,2.64584 l 6.746875,11.64166 q 1.5875,-0.79375 3.241146,-1.25677 1.653646,-0.46302 3.505729,-0.46302 1.719792,0 3.505729,0.46302 1.785938,0.46302 3.241146,1.25677 l 6.746875,-11.64166 q -3.175,-1.85209 -6.813021,-2.77813 -3.638021,-0.92604 -7.342187,-0.92604 z M 57.359182,148.5 q 0,1.85209 -1.322917,3.175 -1.322917,1.32292 -3.175,1.32292 v 0 q -1.852083,0 -3.175,-1.32292 -1.322917,-1.32291 -1.322917,-3.175 v 0 q 0,-1.85208 1.322917,-3.175 1.322917,-1.32291 3.175,-1.32291 v 0 q 1.852083,0 3.175,1.32291 1.322917,1.32292 1.322917,3.175 z m 4.233333,0 q 0,1.5875 -0.727604,3.37344 -0.727604,1.78594 -1.785938,2.84427 -1.058333,1.05833 -2.84427,1.78594 -1.785938,0.7276 -3.373438,0.7276 -1.5875,0 -3.373437,-0.7276 -1.785938,-0.72761 -2.844271,-1.78594 -1.058334,-1.05833 -1.785938,-2.84427 -0.727604,-1.78594 -0.727604,-3.37344 0,-1.5875 0.727604,-3.37343 0.727604,-1.78594 1.785938,-2.84428 1.058333,-1.05833 2.844271,-1.78593 1.785937,-0.72761 3.373437,-0.72761 1.5875,0 3.373438,0.72761 1.785937,0.7276 2.84427,1.78593 1.058334,1.05834 1.785938,2.84428 0.727604,1.78593 0.727604,3.37343 z m -8.466667,-0.13229 v 0 h -0.132291 v -0.13229 0 h -0.06615 -0.06615 -0.06615 -0.06615 v 0 0.13229 h -0.132291 v 0 0.0661 0.0661 0.0661 0.0661 0 h 0.132291 v 0.1323 0 h 0.06615 0.06615 0.06615 0.06615 v 0 -0.1323 h 0.132291 v 0 -0.0661 -0.0661 -0.0661 z"
         id="path1-5-3"
         style="fill:#808080;fill-opacity:1;stroke:none;stroke-width:0.132292;stroke-opacity:1" /><path
         fill="currentColor"
         d="m 202.25019,148.5 q 0,9.12813 -3.63801,17.52865 -3.63803,8.40052 -9.59115,14.35364 -5.95313,5.95313 -14.35365,9.59115 -8.40052,3.63802 -17.52864,3.63802 -9.12813,0 -17.52865,-3.63802 -8.40052,-3.63802 -14.35365,-9.59115 -5.95312,-5.95312 -9.59114,-14.35364 -3.63802,-8.40052 -3.63802,-17.52865 0,-9.12812 3.63802,-17.52864 3.63802,-8.40052 9.59114,-14.35365 5.95313,-5.95312 14.35365,-9.59114 8.40052,-3.63803 17.52865,-3.63803 9.12812,0 17.52864,3.63803 8.40052,3.63802 14.35365,9.59114 5.95312,5.95313 9.59115,14.35365 3.63801,8.40052 3.63801,17.52864 z m -19.57916,-25.53229 q -5.02709,-5.15937 -11.44323,-7.87135 -6.41615,-2.71198 -14.08907,-2.71198 -7.67291,0 -14.08906,2.71198 -6.41614,2.71198 -11.44323,7.87135 -5.15937,5.02708 -7.87135,11.44323 -2.71198,6.41615 -2.71198,14.08906 0,7.67292 2.71198,14.08907 2.71198,6.41614 7.87135,11.44322 5.02709,5.15938 11.44323,7.87136 6.41615,2.71198 14.08906,2.71198 7.67292,0 14.08907,-2.71198 6.41614,-2.71198 11.44323,-7.87136 5.15937,-5.02708 7.87135,-11.44322 2.71197,-6.41615 2.71197,-14.08907 0,-7.67291 -2.71197,-14.08906 -2.71198,-6.41615 -7.87135,-11.44323 z M 170.63248,148.5 q 0,3.57188 -1.78593,6.74688 -1.78594,3.175 -4.96094,5.02708 l 6.74687,11.64167 q 6.35001,-3.57188 9.98803,-9.85573 3.63802,-6.28386 3.63802,-13.5599 z m -40.61354,0 q 0,7.27604 3.63802,13.5599 3.63802,6.28385 9.98802,9.85573 l 6.74688,-11.64167 q -3.175,-1.85208 -4.96094,-5.02708 -1.78594,-3.175 -1.78594,-6.74688 z m 26.45834,-27.11979 q -3.30729,0.13229 -6.61459,1.05833 -3.30729,0.92605 -6.21771,2.64584 l 6.74688,11.64166 q 1.5875,-0.79375 3.24115,-1.25677 1.65364,-0.46302 3.50573,-0.46302 1.71979,0 3.50572,0.46302 1.78594,0.46302 3.24115,1.25677 l 6.74687,-11.64166 q -3.17499,-1.85209 -6.81302,-2.77813 -3.63802,-0.92604 -7.34218,-0.92604 z M 161.63665,148.5 q 0,1.85209 -1.32291,3.175 -1.32292,1.32292 -3.175,1.32292 v 0 q -1.85209,0 -3.175,-1.32292 -1.32292,-1.32291 -1.32292,-3.175 v 0 q 0,-1.85208 1.32292,-3.175 1.32291,-1.32291 3.175,-1.32291 v 0 q 1.85208,0 3.175,1.32291 1.32291,1.32292 1.32291,3.175 z m 4.23334,0 q 0,1.5875 -0.72761,3.37344 -0.7276,1.78594 -1.78594,2.84427 -1.05833,1.05833 -2.84427,1.78594 -1.78594,0.7276 -3.37344,0.7276 -1.5875,0 -3.37343,-0.7276 -1.78594,-0.72761 -2.84427,-1.78594 -1.05834,-1.05833 -1.78594,-2.84427 -0.7276,-1.78594 -0.7276,-3.37344 0,-1.5875 0.7276,-3.37343 0.7276,-1.78594 1.78594,-2.84428 1.05833,-1.05833 2.84427,-1.78593 1.78593,-0.72761 3.37343,-0.72761 1.5875,0 3.37344,0.72761 1.78594,0.7276 2.84427,1.78593 1.05834,1.05834 1.78594,2.84428 0.72761,1.78593 0.72761,3.37343 z m -8.46667,-0.13229 v 0 h -0.13229 v -0.13229 0 h -0.0661 -0.0662 -0.0661 -0.0661 v 0 0.13229 h -0.13229 v 0 0.0661 0.0661 0.0661 0.0661 0 h 0.13229 v 0.1323 0 h 0.0661 0.0661 0.0662 0.0661 v 0 -0.1323 h 0.13229 v 0 -0.0661 -0.0661 -0.0661 z"
         id="path1-5-7"
         style="fill:#808080;fill-opacity:1;stroke:none;stroke-width:0.132292;stroke-opacity:1" /><path
         fill="currentColor"
         d="m 306.52767,148.5 q 0,9.12813 -3.63802,17.52865 -3.63801,8.40052 -9.59115,14.35364 -5.95312,5.95313 -14.35364,9.59115 -8.40052,3.63802 -17.52864,3.63802 -9.12813,0 -17.52865,-3.63802 -8.40052,-3.63802 -14.35365,-9.59115 -5.95312,-5.95312 -9.59114,-14.35364 -3.63802,-8.40052 -3.63802,-17.52865 0,-9.12812 3.63802,-17.52864 3.63802,-8.40052 9.59114,-14.35365 5.95313,-5.95312 14.35365,-9.59114 8.40052,-3.63803 17.52865,-3.63803 9.12812,0 17.52864,3.63803 8.40052,3.63802 14.35364,9.59114 5.95314,5.95313 9.59115,14.35365 3.63802,8.40052 3.63802,17.52864 z m -19.57916,-25.53229 q -5.02709,-5.15937 -11.44323,-7.87135 -6.41615,-2.71198 -14.08907,-2.71198 -7.67291,0 -14.08906,2.71198 -6.41614,2.71198 -11.44323,7.87135 -5.15937,5.02708 -7.87135,11.44323 -2.71198,6.41615 -2.71198,14.08906 0,7.67292 2.71198,14.08907 2.71198,6.41614 7.87135,11.44322 5.02709,5.15938 11.44323,7.87136 6.41615,2.71198 14.08906,2.71198 7.67292,0 14.08907,-2.71198 6.41614,-2.71198 11.44323,-7.87136 5.15937,-5.02708 7.87135,-11.44322 2.71197,-6.41615 2.71197,-14.08907 0,-7.67291 -2.71197,-14.08906 -2.71198,-6.41615 -7.87135,-11.44323 z M 274.90996,148.5 q 0,3.57188 -1.78593,6.74688 -1.78594,3.175 -4.96094,5.02708 l 6.74687,11.64167 q 6.35001,-3.57188 9.98803,-9.85573 3.63802,-6.28386 3.63802,-13.5599 z m -40.61354,0 q 0,7.27604 3.63802,13.5599 3.63802,6.28385 9.98802,9.85573 l 6.74688,-11.64167 q -3.175,-1.85208 -4.96094,-5.02708 -1.78594,-3.175 -1.78594,-6.74688 z m 26.45834,-27.11979 q -3.30729,0.13229 -6.61459,1.05833 -3.30729,0.92605 -6.21771,2.64584 l 6.74688,11.64166 q 1.5875,-0.79375 3.24115,-1.25677 1.65364,-0.46302 3.50573,-0.46302 1.71979,0 3.50572,0.46302 1.78594,0.46302 3.24115,1.25677 l 6.74687,-11.64166 q -3.175,-1.85209 -6.81302,-2.77813 -3.63802,-0.92604 -7.34218,-0.92604 z M 265.91413,148.5 q 0,1.85209 -1.32291,3.175 -1.32292,1.32292 -3.175,1.32292 v 0 q -1.85209,0 -3.17501,-1.32292 -1.32291,-1.32291 -1.32291,-3.175 v 0 q 0,-1.85208 1.32291,-3.175 1.32292,-1.32291 3.17501,-1.32291 v 0 q 1.85208,0 3.175,1.32291 1.32291,1.32292 1.32291,3.175 z m 4.23333,0 q 0,1.5875 -0.7276,3.37344 -0.7276,1.78594 -1.78594,2.84427 -1.05833,1.05833 -2.84427,1.78594 -1.78594,0.7276 -3.37343,0.7276 -1.58751,0 -3.37344,-0.7276 -1.78594,-0.72761 -2.84427,-1.78594 -1.05834,-1.05833 -1.78594,-2.84427 -0.72761,-1.78594 -0.72761,-3.37344 0,-1.5875 0.72761,-3.37343 0.7276,-1.78594 1.78594,-2.84428 1.05833,-1.05833 2.84427,-1.78593 1.78593,-0.72761 3.37344,-0.72761 1.58749,0 3.37343,0.72761 1.78594,0.7276 2.84427,1.78593 1.05834,1.05834 1.78594,2.84428 0.7276,1.78593 0.7276,3.37343 z m -8.46666,-0.13229 v 0 h -0.13229 v -0.13229 0 h -0.0661 -0.0662 -0.0661 -0.0661 v 0 0.13229 h -0.13229 v 0 0.0661 0.0661 0.0661 0.0661 0 h 0.13229 v 0.1323 0 h 0.0661 0.0661 0.0662 0.0661 v 0 -0.1323 h 0.13229 v 0 -0.0661 -0.0661 -0.0661 z"
         id="path1-5-1"
         style="fill:#808080;fill-opacity:1;stroke:none;stroke-width:0.132292;stroke-opacity:1" /></g></g></svg>
