<?xml version="1.0" encoding="UTF-8" standalone="no"?>
<!-- Created with Inkscape (http://www.inkscape.org/) -->

<svg
   width="313.40985mm"
   height="105.01481mm"
   viewBox="0 0 313.40984 105.01481"
   version="1.1"
   id="svg1"
   xml:space="preserve"
   inkscape:export-filename="OverchargeBarEmpty.svg"
   inkscape:export-xdpi="96"
   inkscape:export-ydpi="96"
   sodipodi:docname="EmptyOverchargeBar.svg"
   inkscape:version="1.3.1 (91b66b0783, 2023-11-16)"
   xmlns:inkscape="http://www.inkscape.org/namespaces/inkscape"
   xmlns:sodipodi="http://sodipodi.sourceforge.net/DTD/sodipodi-0.dtd"
   xmlns="http://www.w3.org/2000/svg"
   xmlns:svg="http://www.w3.org/2000/svg"><sodipodi:namedview
     id="namedview1"
     pagecolor="#ffffff"
     bordercolor="#000000"
     borderopacity="0.25"
     inkscape:showpageshadow="2"
     inkscape:pageopacity="0.0"
     inkscape:pagecheckerboard="0"
     inkscape:deskcolor="#d1d1d1"
     inkscape:document-units="mm"
     showguides="false"
     inkscape:zoom="0.48577443"
     inkscape:cx="545.52068"
     inkscape:cy="283.05318"
     inkscape:window-width="1920"
     inkscape:window-height="1009"
     inkscape:window-x="-8"
     inkscape:window-y="-8"
     inkscape:window-maximized="1"
     inkscape:current-layer="layer1" /><defs
     id="defs1" /><g
     inkscape:label="Layer 1"
     inkscape:groupmode="layer"
     id="layer1"
     transform="translate(-51.097992,4.1591728)"><rect
       style="fill:#000000;fill-opacity:0.702083;stroke:#333333;stroke-width:4;stroke-linecap:square;stroke-linejoin:miter;stroke-miterlimit:3.3;stroke-dasharray:none;stroke-opacity:1"
       id="rect1"
       width="309.40985"
       height="101.01481"
       x="53.097992"
       y="-2.1591728" /><path
       fill="currentColor"
       d="m 115.92178,24.951617 24.47385,-3.658464 -8.95692,23.086168 18.16616,16.904619 -23.71694,7.443081 -1.8923,24.726167 L 103.43254,79.576253 82.869457,93.453188 80.977148,68.727021 57.260216,61.28394 75.426378,44.379321 66.469451,21.293153 90.943303,24.951617 103.43254,3.5054583 Z m -20.436935,9.335396 -15.643081,-2.27077 5.803078,14.76 -11.606158,10.72308 15.138469,4.793854 1.13538,15.769229 13.120007,-8.956919 13.12001,8.956919 1.26154,-15.769229 15.01231,-4.793854 -11.48001,-10.72308 5.67693,-14.76 -15.64308,2.27077 -7.9477,-13.624622 z m 16.526165,16.526152 q 0,3.532312 -2.52308,6.055386 -2.52308,2.523084 -6.05539,2.523084 v 0 q -3.532306,0 -6.055382,-2.523084 -2.523085,-2.523074 -2.523085,-6.055386 v 0 q 0,-3.532303 2.523085,-6.055387 2.523076,-2.523075 6.055382,-2.523075 v 0 q 3.53231,0 6.05539,2.523075 2.52308,2.523084 2.52308,6.055387 z"
       id="path1"
       style="opacity:0.2;fill:#808080;fill-opacity:1;stroke:#808080;stroke-width:2.5;stroke-dasharray:none;stroke-opacity:1" /><path
       fill="currentColor"
       d="m 220.29218,24.951617 24.47386,-3.658464 -8.95694,23.086168 18.16616,16.904619 -23.71692,7.443081 -1.89231,24.726167 -20.56309,-13.876935 -20.56309,13.876935 -1.8923,-24.726167 -23.71693,-7.443081 18.16616,-16.904619 -8.95692,-23.086168 24.47385,3.658464 12.48923,-21.4461581 z m -20.43693,9.335396 -15.64309,-2.27077 5.80308,14.76 -11.60615,10.72308 15.13847,4.793854 1.13538,15.769229 13.12,-8.956919 13.12002,8.956919 1.26152,-15.769229 15.01232,-4.793854 -11.48,-10.72308 5.67693,-14.76 -15.64309,2.27077 -7.9477,-13.624622 z m 16.52617,16.526152 q 0,3.532312 -2.5231,6.055386 -2.52307,2.523085 -6.05538,2.523085 v 0 q -3.53231,0 -6.05538,-2.523085 -2.52308,-2.523074 -2.52308,-6.055386 v 0 q 0,-3.532303 2.52308,-6.055387 2.52307,-2.523075 6.05538,-2.523075 v 0 q 3.53231,0 6.05538,2.523075 2.5231,2.523084 2.5231,6.055387 z"
       id="path1-7"
       style="opacity:0.2;fill:#808080;fill-opacity:1;stroke:#808080;stroke-width:2.5;stroke-dasharray:none;stroke-opacity:1" /><path
       fill="currentColor"
       d="m 324.66257,24.951617 24.47385,-3.658464 -8.95692,23.086168 18.16616,16.904619 -23.71693,7.443081 -1.8923,24.726167 -20.5631,-13.876935 -20.56308,13.876935 -1.89231,-24.726167 -23.71692,-7.443081 18.16616,-16.904619 -8.95694,-23.086168 24.47386,3.658464 12.48923,-21.4461582 z m -20.43693,9.335396 -15.64309,-2.27077 5.80309,14.76 -11.60616,10.72308 15.13846,4.793854 1.13539,15.769229 13.12,-8.956919 13.12001,8.956919 1.26154,-15.769229 15.01231,-4.793854 -11.48,-10.72308 5.67693,-14.76 -15.64308,2.27077 -7.9477,-13.624622 z m 16.52617,16.526152 q 0,3.532312 -2.52309,6.055386 -2.52307,2.523084 -6.05538,2.523084 v 0 q -3.5323,0 -6.05538,-2.523084 -2.52309,-2.523074 -2.52309,-6.055386 v 0 q 0,-3.532303 2.52309,-6.055387 2.52308,-2.523075 6.05538,-2.523075 v 0 q 3.53232,0 6.05538,2.523075 2.52309,2.523084 2.52309,6.055387 z"
       id="path1-3"
       style="opacity:0.2;fill:#808080;fill-opacity:1;stroke:#808080;stroke-width:2.5;stroke-dasharray:none;stroke-opacity:1" /></g></svg>
