<?xml version="1.0" encoding="UTF-8" standalone="no"?>
<!-- Created with Inkscape (http://www.inkscape.org/) -->

<svg
   width="712.68658mm"
   height="109.3147mm"
   viewBox="0 0 712.6866 109.3147"
   version="1.1"
   id="svg1"
   xml:space="preserve"
   inkscape:export-filename="HPBar.svg"
   inkscape:export-xdpi="96"
   inkscape:export-ydpi="96"
   sodipodi:docname="EmptyHPBar.svg"
   inkscape:version="1.3.1 (91b66b0783, 2023-11-16)"
   xmlns:inkscape="http://www.inkscape.org/namespaces/inkscape"
   xmlns:sodipodi="http://sodipodi.sourceforge.net/DTD/sodipodi-0.dtd"
   xmlns="http://www.w3.org/2000/svg"
   xmlns:svg="http://www.w3.org/2000/svg"><sodipodi:namedview
     id="namedview1"
     pagecolor="#ffffff"
     bordercolor="#000000"
     borderopacity="0.25"
     inkscape:showpageshadow="2"
     inkscape:pageopacity="0.0"
     inkscape:pagecheckerboard="0"
     inkscape:deskcolor="#d1d1d1"
     inkscape:document-units="mm"
     inkscape:zoom="0.25"
     inkscape:cx="1324"
     inkscape:cy="90"
     inkscape:window-width="1920"
     inkscape:window-height="1009"
     inkscape:window-x="3832"
     inkscape:window-y="-8"
     inkscape:window-maximized="1"
     inkscape:current-layer="layer1" /><defs
     id="defs1"><rect
       x="12"
       y="78"
       width="573"
       height="426"
       id="rect3" /></defs><g
     inkscape:label="Layer 1"
     inkscape:groupmode="layer"
     id="layer1"
     transform="translate(105.56806,-94.063911)"><path
       id="rect1"
       style="opacity:1;fill-opacity:0.50231481;stroke:#333333;stroke-width:4;stroke-linecap:square;stroke-miterlimit:3.3;stroke-opacity:1;fill:#000000"
       inkscape:label="BG"
       d="m -103.56806,96.063911 h 668.87481 l 39.81177,39.774189 0,65.54051 h -708.68658 z"
       sodipodi:nodetypes="cccccc" /><path
       id="rect1-1"
       style="display:none;fill:#1f9eff;fill-opacity:0.698039;stroke:none;stroke-width:0.808132;stroke-linecap:square;stroke-linejoin:bevel;stroke-miterlimit:3.3;stroke-opacity:0.90162"
       inkscape:label="ItemBar"
       d="m -101.56977,98.064129 666.05416,-0.0014 38.63408,38.603921 -9.3e-4,62.71521 -704.6875,-3e-5 z"
       sodipodi:nodetypes="cccccc" /><path
       id="path2"
       style="display:inline;opacity:1;fill:#333333;fill-opacity:1;stroke:none;stroke-width:0.801467;stroke-linecap:square;stroke-linejoin:bevel;stroke-miterlimit:3.3;stroke-dasharray:none;stroke-opacity:0.899083"
       inkscape:label="Tag"
       d="m -105.56806,115.18141 0.005,88.1972 H 31.03601 v -47.7485 l -40.09833,-40.4487 z m 31.5185,7.13549 c 0.39843,0.0117 0.80153,0.0381 1.21026,0.0791 4.22313,0.42293 7.70075,1.76551 11.17089,4.31292 1.60391,1.17742 4.39024,3.95776 5.31647,5.3051 0.35509,0.51651 0.69498,0.93948 0.75551,0.93948 0.0605,0 0.39997,-0.42693 0.75448,-0.94827 0.93338,-1.37263 4.04051,-4.41069 5.72006,-5.59294 1.68109,-1.18334 4.25619,-2.48387 6.134,-3.098 3.16782,-1.03602 7.24305,-1.28754 9.81128,-0.60565 3.38664,0.89917 5.94979,2.37155 8.50801,4.88704 2.61091,2.56732 4.12529,5.07398 5.07824,8.40724 3.93504,13.76405 -4.61993,31.72873 -23.77839,49.93236 -4.45481,4.23278 -11.67585,10.32401 -12.22768,10.31461 -0.136,-0.002 -0.95197,-0.56659 -1.81332,-1.25419 -7.74093,-6.17949 -14.86097,-13.04342 -20.35225,-19.61947 -9.77263,-11.70315 -14.76137,-22.67872 -14.76137,-32.4776 0,-3.88757 0.709,-7.13199 2.22777,-10.19266 1.81997,-3.66767 4.57209,-6.49855 8.15196,-8.38606 2.73976,-1.44456 5.30505,-2.08487 8.09408,-2.00297 z" /></g></svg>
