<?xml version="1.0" encoding="UTF-8" standalone="no"?>
<!-- Created with Inkscape (http://www.inkscape.org/) -->

<svg
   width="712.68658mm"
   height="109.31469mm"
   viewBox="0 0 712.6866 109.31469"
   version="1.1"
   id="svg1"
   xml:space="preserve"
   inkscape:export-filename="HeatBar.png"
   inkscape:export-xdpi="96"
   inkscape:export-ydpi="96"
   sodipodi:docname="EmptyHeatBar.svg"
   inkscape:version="1.3.1 (91b66b0783, 2023-11-16)"
   xmlns:inkscape="http://www.inkscape.org/namespaces/inkscape"
   xmlns:sodipodi="http://sodipodi.sourceforge.net/DTD/sodipodi-0.dtd"
   xmlns="http://www.w3.org/2000/svg"
   xmlns:svg="http://www.w3.org/2000/svg"><sodipodi:namedview
     id="namedview1"
     pagecolor="#ffffff"
     bordercolor="#000000"
     borderopacity="0.25"
     inkscape:showpageshadow="2"
     inkscape:pageopacity="0.0"
     inkscape:pagecheckerboard="0"
     inkscape:deskcolor="#d1d1d1"
     inkscape:document-units="mm"
     inkscape:zoom="0.25"
     inkscape:cx="1464"
     inkscape:cy="558"
     inkscape:window-width="1920"
     inkscape:window-height="1009"
     inkscape:window-x="3832"
     inkscape:window-y="-8"
     inkscape:window-maximized="1"
     inkscape:current-layer="layer1" /><defs
     id="defs1" /><g
     inkscape:label="Layer 1"
     inkscape:groupmode="layer"
     id="layer1"
     transform="translate(105.56806,-94.063911)"><path
       id="rect1-11"
       style="fill:#ff7b00;fill-opacity:1;stroke:#333333;stroke-width:4;stroke-linecap:square;stroke-miterlimit:3.3;stroke-opacity:1"
       inkscape:label="BG"
       d="m -103.56806,201.37861 h 668.87481 l 39.81177,-39.77419 V 96.06391 h -708.68658 z"
       sodipodi:nodetypes="cccccc" /><path
       id="rect1-1-2"
       style="display:inline;fill:#ff7b00;fill-opacity:1;stroke:none;stroke-width:0.808132;stroke-linecap:square;stroke-linejoin:bevel;stroke-miterlimit:3.3;stroke-opacity:0.90162"
       inkscape:label="ItemBar"
       d="m -101.56879,199.37982 666.05416,0.001 38.63408,-38.60392 -9.3e-4,-62.715205 -704.6875,3e-5 z"
       sodipodi:nodetypes="cccccc" /><path
       id="path2-3"
       style="fill:#333333;fill-opacity:1;stroke:none;stroke-width:0.801467;stroke-linecap:square;stroke-linejoin:bevel;stroke-miterlimit:3.3;stroke-dasharray:none;stroke-opacity:0.899083"
       inkscape:label="Tag"
       d="m -105.56306,94.063911 -0.005,88.196679 H -9.062493 L 31.035835,141.81242 V 94.063911 Z m 50.298736,7.158739 c 2.607011,0 4.804865,0.90966 6.593396,2.72851 1.78853,1.81885 2.683041,4.03187 2.683041,6.63887 v 37.2861 c 2.00073,1.45508 3.546653,3.2739 4.637959,5.45651 1.091307,2.18262 1.63711,4.4866 1.63711,6.91173 0,4.3046 -1.515602,7.97256 -4.547009,11.00398 -3.031409,3.0314 -6.699898,4.54701 -11.004497,4.54701 -4.304599,0 -7.972572,-1.51561 -11.003979,-4.54701 -3.031408,-3.03142 -4.54701,-6.69938 -4.54701,-11.00398 0,-2.42513 0.545803,-4.72911 1.63711,-6.91173 1.091307,-2.18261 2.637232,-4.00143 4.63796,-5.45651 v -37.2861 c 0,-2.607 0.894508,-4.82002 2.68304,-6.63887 1.78853,-1.81885 3.985869,-2.72851 6.592879,-2.72851 z m 15.551506,15.5515 h 12.368237 v 6.1836 h -12.368237 z m -18.643307,12.45867 v 22.28081 c -1.879472,0.60628 -3.379912,1.71305 -4.501534,3.3197 -1.121621,1.60664 -1.682584,3.41032 -1.682584,5.41104 0,2.54639 0.90967,4.72907 2.728515,6.54792 1.818845,1.81884 4.001022,2.728 6.547404,2.728 2.546384,0 4.729077,-0.90916 6.547921,-2.728 1.818844,-1.81885 2.728516,-4.00153 2.728516,-6.54792 0,-2.00072 -0.560964,-3.8044 -1.682585,-5.41104 -1.121621,-1.60665 -2.622061,-2.71342 -4.501534,-3.3197 v -22.28081 z m 18.643307,3.09232 h 12.368237 v 6.18412 h -12.368237 z" /></g></svg>
