<?xml version="1.0" encoding="UTF-8" standalone="no"?>
<!-- Created with Inkscape (http://www.inkscape.org/) -->

<svg
   width="112.79237mm"
   height="112.79237mm"
   viewBox="0 0 112.79237 112.79237"
   version="1.1"
   id="svg1"
   xml:space="preserve"
   inkscape:export-filename="EmptyCPBar.svg"
   inkscape:export-xdpi="96"
   inkscape:export-ydpi="96"
   sodipodi:docname="LeftEmptyCPBar.svg"
   inkscape:version="1.3.1 (91b66b0783, 2023-11-16)"
   xmlns:inkscape="http://www.inkscape.org/namespaces/inkscape"
   xmlns:sodipodi="http://sodipodi.sourceforge.net/DTD/sodipodi-0.dtd"
   xmlns="http://www.w3.org/2000/svg"
   xmlns:svg="http://www.w3.org/2000/svg"><sodipodi:namedview
     id="namedview1"
     pagecolor="#ffffff"
     bordercolor="#000000"
     borderopacity="0.25"
     inkscape:showpageshadow="2"
     inkscape:pageopacity="0.0"
     inkscape:pagecheckerboard="0"
     inkscape:deskcolor="#d1d1d1"
     inkscape:document-units="mm"
     inkscape:zoom="1.4142136"
     inkscape:cx="283.19626"
     inkscape:cy="225.21351"
     inkscape:window-width="1920"
     inkscape:window-height="1009"
     inkscape:window-x="1912"
     inkscape:window-y="-8"
     inkscape:window-maximized="1"
     inkscape:current-layer="layer1" /><defs
     id="defs1" /><g
     inkscape:label="Layer 1"
     inkscape:groupmode="layer"
     id="layer1"
     transform="translate(-65.694443,-79.143959)"><rect
       style="opacity:0.1;fill:none;fill-opacity:0.699083;stroke:#333333;stroke-width:4;stroke-linecap:square;stroke-linejoin:miter;stroke-miterlimit:3.3;stroke-dasharray:none;stroke-opacity:1"
       id="rect1"
       width="108.79237"
       height="108.79237"
       x="81.143959"
       y="-176.48682"
       transform="rotate(90)" /><path
       style="display:inline;opacity:1;fill:#1eff00;fill-opacity:1;stroke-width:1.97872"
       d="m 162.35654,105.07723 c 0,0 0.28255,3.81114 0.21253,8.22479 -0.0794,5.02988 0.0944,8.09326 0.46548,8.20826 0.32471,0.10069 2.40202,0.14459 4.61398,0.0969 2.88399,-0.0624 4.07968,0.13692 4.22667,0.70518 0.27767,1.07299 0.11009,26.57876 -0.17838,27.10027 -0.12507,0.2275 -2.2235,0.41152 -4.66108,0.40929 -2.43772,-0.002 -4.52764,-0.15842 -4.64439,0.0401 -0.11672,0.19859 -0.2073,4.05927 -0.20207,8.19441 0.007,4.13521 -0.23517,7.95701 -0.23517,7.95701 l -89.789972,0.0505 0.31229,-61.04759 c 29.960042,0.0198 59.920072,0.0405 89.880112,0.0609 z m -65.372782,50.19175 c 0.3275,-0.007 1.85374,-6.88364 3.760592,-14.66379 1.90676,-7.78024 3.76963,-14.69752 3.76963,-14.69752 5.03665,0.93973 14.81657,2.89983 14.81657,2.89983 l 1.67784,-13.73964 c 0,0 -38.088902,-0.38654 -38.207432,-0.18534 -0.16722,0.28463 -1.3154,40.16115 -0.47549,40.17933 9.97697,0.21566 14.65829,0.20695 14.65829,0.20695 z m 44.451542,0.98383 c 14.86632,0.13796 11.22464,0.0561 11.34233,-0.18186 0.28708,-0.58067 0.50329,-40.27512 0.22019,-40.432 -0.36484,-0.20207 -11.26767,-0.35536 -11.36561,-0.15573 -0.0502,0.10138 -1.37163,7.24903 -2.93777,15.88471 l -2.84761,15.70124 -4.81096,-1.14716 c -2.64603,-0.63094 -7.01592,-1.67309 -9.71069,-2.3161 l -4.89966,-1.16914 -0.6469,3.82064 c -0.35595,2.10139 -0.8843,5.09888 -1.17458,6.66108 -0.29021,1.56221 -0.45326,2.89499 -0.36261,2.96192 0.0902,0.0662 12.32805,0.23482 27.19425,0.37261 z"
       id="path17"
       inkscape:label="Core Logo"
       sodipodi:nodetypes="cssssccsscccccscccssccscsscsscsccccsc" /></g></svg>
