<?xml version="1.0" encoding="UTF-8" standalone="no"?>
<!-- Created with Inkscape (http://www.inkscape.org/) -->

<svg
   width="233.25099mm"
   height="109.8791mm"
   viewBox="0 0 233.251 109.87909"
   version="1.1"
   id="svg1"
   xml:space="preserve"
   inkscape:export-filename="ReactorStressBar.svg"
   inkscape:export-xdpi="96"
   inkscape:export-ydpi="96"
   sodipodi:docname="NPCEmptyReactorStressBar.svg"
   inkscape:version="1.3.1 (91b66b0783, 2023-11-16)"
   xmlns:inkscape="http://www.inkscape.org/namespaces/inkscape"
   xmlns:sodipodi="http://sodipodi.sourceforge.net/DTD/sodipodi-0.dtd"
   xmlns="http://www.w3.org/2000/svg"
   xmlns:svg="http://www.w3.org/2000/svg"><sodipodi:namedview
     id="namedview1"
     pagecolor="#ffffff"
     bordercolor="#000000"
     borderopacity="0.25"
     inkscape:showpageshadow="2"
     inkscape:pageopacity="0.0"
     inkscape:pagecheckerboard="0"
     inkscape:deskcolor="#d1d1d1"
     inkscape:document-units="mm"
     inkscape:zoom="0.52347032"
     inkscape:cx="464.2097"
     inkscape:cy="123.21615"
     inkscape:window-width="1920"
     inkscape:window-height="1009"
     inkscape:window-x="-8"
     inkscape:window-y="-8"
     inkscape:window-maximized="1"
     inkscape:current-layer="layer1" /><defs
     id="defs1" /><g
     inkscape:label="Layer 1"
     inkscape:groupmode="layer"
     id="layer1"
     transform="translate(105.85026,-93.781715)"><rect
       style="opacity:1;fill:#000000;fill-opacity:0.697917;stroke:#333333;stroke-width:4;stroke-linecap:square;stroke-linejoin:miter;stroke-miterlimit:3.3;stroke-dasharray:none;stroke-opacity:1"
       id="rect1"
       width="229.25099"
       height="105.8791"
       x="-103.85026"
       y="95.781715" /><g
       id="g1"
       inkscape:label="Structure"
       style="display:none"><path
         fill="currentColor"
         d="M -51.416215,96.906255 0.17753107,148.49999 -51.416215,200.09374 -103.00996,148.49999 Z m 0,90.355195 38.76146,-38.76146 -38.76146,-38.76146 -38.761454,38.76146 z m 0,-65.88125 -4.49791,4.49792 v 45.24375 l 4.49791,4.49791 4.49792,-4.49791 v -45.24375 z m 27.1198,27.11979 -4.49792,-4.49791 h -45.243751 l -4.497916,4.49791 4.497916,4.49792 h 45.243751 z"
         id="path1"
         style="display:inline;fill:#1f9eff;fill-opacity:1;stroke-width:0.132292" /></g><g
       id="g2"
       inkscape:label="Stress"
       style="opacity:0.199554;fill:#808080"
       transform="translate(-67.000005)"><path
         fill="currentColor"
         d="m 122.8867,148.72126 q 0,9.12813 -3.63802,17.52865 -3.63802,8.40052 -9.59115,14.35364 -5.95312,5.95313 -14.353639,9.59115 -8.400521,3.63802 -17.528646,3.63802 -9.128125,0 -17.528646,-3.63802 -8.400521,-3.63802 -14.353646,-9.59115 -5.953125,-5.95312 -9.591145,-14.35364 -3.638021,-8.40052 -3.638021,-17.52865 0,-9.12812 3.638021,-17.52864 3.63802,-8.40052 9.591145,-14.35365 5.953125,-5.95312 14.353646,-9.59114 8.400521,-3.63803 17.528646,-3.63803 9.128125,0 17.528646,3.63803 8.400519,3.63802 14.353639,9.59114 5.95313,5.95313 9.59115,14.35365 3.63802,8.40052 3.63802,17.52864 z m -19.57916,-25.53229 q -5.027087,-5.15937 -11.443232,-7.87135 -6.416146,-2.71198 -14.089063,-2.71198 -7.672917,0 -14.089062,2.71198 -6.416146,2.71198 -11.44323,7.87135 -5.159375,5.02708 -7.871354,11.44323 -2.711979,6.41615 -2.711979,14.08906 0,7.67292 2.711979,14.08907 2.711979,6.41614 7.871354,11.44322 5.027084,5.15938 11.44323,7.87136 6.416145,2.71198 14.089062,2.71198 7.672917,0 14.089063,-2.71198 6.416145,-2.71198 11.443232,-7.87136 5.15937,-5.02708 7.87135,-11.44322 2.71197,-6.41615 2.71197,-14.08907 0,-7.67291 -2.71197,-14.08906 -2.71198,-6.41615 -7.87135,-11.44323 z m -12.038545,25.53229 q 0,3.57188 -1.785937,6.74688 -1.785938,3.175 -4.960938,5.02708 l 6.746875,11.64167 q 6.35,-3.57188 9.988025,-9.85573 3.63802,-6.28386 3.63802,-13.5599 z m -40.613542,0 q 0,7.27604 3.638021,13.5599 3.638021,6.28385 9.988021,9.85573 l 6.746875,-11.64167 q -3.175,-1.85208 -4.960937,-5.02708 -1.785938,-3.175 -1.785938,-6.74688 z m 26.458334,-27.11979 q -3.307292,0.13229 -6.614584,1.05833 -3.307291,0.92605 -6.217708,2.64584 l 6.746875,11.64166 q 1.5875,-0.79375 3.241146,-1.25677 1.653646,-0.46302 3.505729,-0.46302 1.719792,0 3.505729,0.46302 1.785938,0.46302 3.241146,1.25677 l 6.746875,-11.64166 q -3.175,-1.85209 -6.813021,-2.77813 -3.638021,-0.92604 -7.342187,-0.92604 z m 5.159375,27.11979 q 0,1.85209 -1.322917,3.175 -1.322917,1.32292 -3.175,1.32292 v 0 q -1.852083,0 -3.175,-1.32292 -1.322917,-1.32291 -1.322917,-3.175 v 0 q 0,-1.85208 1.322917,-3.175 1.322917,-1.32291 3.175,-1.32291 v 0 q 1.852083,0 3.175,1.32291 1.322917,1.32292 1.322917,3.175 z m 4.233333,0 q 0,1.5875 -0.727604,3.37344 -0.727604,1.78594 -1.785938,2.84427 -1.058333,1.05833 -2.84427,1.78594 -1.785938,0.7276 -3.373438,0.7276 -1.5875,0 -3.373437,-0.7276 -1.785938,-0.72761 -2.844271,-1.78594 -1.058334,-1.05833 -1.785938,-2.84427 -0.727604,-1.78594 -0.727604,-3.37344 0,-1.5875 0.727604,-3.37343 0.727604,-1.78594 1.785938,-2.84428 1.058333,-1.05833 2.844271,-1.78593 1.785937,-0.72761 3.373437,-0.72761 1.5875,0 3.373438,0.72761 1.785937,0.7276 2.84427,1.78593 1.058334,1.05834 1.785938,2.84428 0.727604,1.78593 0.727604,3.37343 z m -8.466667,-0.13229 v 0 h -0.132291 v -0.13229 0 h -0.06615 -0.06615 -0.06615 -0.06615 v 0 0.13229 h -0.132291 v 0 0.0661 0.0661 0.0661 0.0661 0 h 0.132291 v 0.1323 0 h 0.06615 0.06615 0.06615 0.06615 v 0 -0.1323 h 0.132291 v 0 -0.0661 -0.0661 -0.0661 z"
         id="path1-5"
         style="display:inline;fill:#808080;fill-opacity:1;stroke:none;stroke-width:0.132292;stroke-opacity:1" /></g></g></svg>
