<?xml version="1.0" encoding="UTF-8" standalone="no"?>
<!-- Created with Inkscape (http://www.inkscape.org/) -->

<svg
   width="310.4187mm"
   height="102.02362mm"
   viewBox="0 0 310.41869 102.02362"
   version="1.1"
   id="svg1"
   xml:space="preserve"
   inkscape:export-filename="OverchargeBar.svg"
   inkscape:export-xdpi="96"
   inkscape:export-ydpi="96"
   xmlns:inkscape="http://www.inkscape.org/namespaces/inkscape"
   xmlns:sodipodi="http://sodipodi.sourceforge.net/DTD/sodipodi-0.dtd"
   xmlns="http://www.w3.org/2000/svg"
   xmlns:svg="http://www.w3.org/2000/svg"><sodipodi:namedview
     id="namedview1"
     pagecolor="#ffffff"
     bordercolor="#000000"
     borderopacity="0.25"
     inkscape:showpageshadow="2"
     inkscape:pageopacity="0.0"
     inkscape:pagecheckerboard="0"
     inkscape:deskcolor="#d1d1d1"
     inkscape:document-units="mm" /><defs
     id="defs1" /><g
     inkscape:label="Layer 1"
     inkscape:groupmode="layer"
     id="layer1"
     transform="translate(-52.593587,2.6635778)"><rect
       style="fill:#000000;fill-opacity:0.702083;stroke:#000000;stroke-width:1.00881;stroke-linecap:square;stroke-linejoin:bevel;stroke-miterlimit:3.3;stroke-dasharray:none;stroke-opacity:1"
       id="rect1"
       width="309.40985"
       height="101.01481"
       x="53.097992"
       y="-2.1591728" /><path
       fill="currentColor"
       d="m 118.17269,23.744737 25.66458,-3.83646 -9.39271,24.20938 19.05,17.72708 -24.87083,7.80521 -1.98437,25.92917 -21.56355,-14.55209 -21.563536,14.55209 -1.984375,-25.92917 -24.870834,-7.80521 19.050001,-17.72708 -9.392708,-24.20938 25.66458,3.83646 13.096872,-22.4895802 z m -21.431252,9.78959 -16.404163,-2.38125 6.085415,15.47812 -12.170833,11.24479 15.875001,5.02709 1.19062,16.53645 13.758332,-9.3927 13.75834,9.3927 1.32291,-16.53645 15.74271,-5.02709 -12.03854,-11.24479 5.95313,-15.47812 -16.40417,2.38125 -8.33438,-14.2875 z m 17.330212,17.3302 q 0,3.70417 -2.64584,6.35 -2.64583,2.64584 -6.35,2.64584 v 0 q -3.70416,0 -6.349992,-2.64584 -2.64584,-2.64583 -2.64584,-6.35 v 0 q 0,-3.70416 2.64584,-6.35 2.645832,-2.64583 6.349992,-2.64583 v 0 q 3.70417,0 6.35,2.64583 2.64584,2.64584 2.64584,6.35 z"
       id="path1"
       style="fill:#808080;fill-opacity:1;stroke:#808080;stroke-width:2.8;stroke-dasharray:none;stroke-opacity:1" /><path
       fill="currentColor"
       d="m 220.97129,23.744736 25.66458,-3.83646 -9.39271,24.20938 19.05,17.72708 -24.87083,7.80521 -1.98437,25.92917 -21.56355,-14.55209 -21.56354,14.55209 -1.98437,-25.92917 -24.87083,-7.80521 19.05,-17.72708 -9.39271,-24.20938 25.66458,3.83646 13.09687,-22.4895786 z m -21.43125,9.78959 -16.40417,-2.38125 6.08542,15.47812 -12.17083,11.24479 15.875,5.02709 1.19062,16.53645 13.75833,-9.3927 13.75834,9.3927 1.32291,-16.53645 15.74271,-5.02709 -12.03854,-11.24479 5.95313,-15.47812 -16.40417,2.38125 -8.33438,-14.2875 z m 17.33021,17.3302 q 0,3.70417 -2.64584,6.35 -2.64583,2.64584 -6.35,2.64584 v 0 q -3.70416,0 -6.34999,-2.64584 -2.64584,-2.64583 -2.64584,-6.35 v 0 q 0,-3.70416 2.64584,-6.35 2.64583,-2.64583 6.34999,-2.64583 v 0 q 3.70417,0 6.35,2.64583 2.64584,2.64584 2.64584,6.35 z"
       id="path1-7"
       style="fill:#808080;fill-opacity:1;stroke:#808080;stroke-width:2.8;stroke-dasharray:none;stroke-opacity:1" /><path
       fill="currentColor"
       d="m 323.76989,23.744737 25.66458,-3.83646 -9.39271,24.20938 19.05,17.72708 -24.87083,7.80521 -1.98437,25.92917 -21.56355,-14.55209 -21.56354,14.55209 -1.98437,-25.92917 -24.87083,-7.80521 19.05,-17.72708 -9.39271,-24.20938 25.66458,3.83646 13.09687,-22.4895803 z m -21.43125,9.78959 -16.40417,-2.38125 6.08542,15.47812 -12.17083,11.24479 15.875,5.02709 1.19063,16.53645 13.75832,-9.3927 13.75834,9.3927 1.32291,-16.53645 15.74271,-5.02709 -12.03854,-11.24479 5.95313,-15.47812 -16.40416,2.38125 -8.33438,-14.2875 z m 17.33022,17.3302 q 0,3.70417 -2.64585,6.35 -2.64583,2.64584 -6.34999,2.64584 v 0 q -3.70416,0 -6.35,-2.64584 -2.64583,-2.64583 -2.64583,-6.35 v 0 q 0,-3.70416 2.64583,-6.35 2.64584,-2.64583 6.35,-2.64583 v 0 q 3.70417,0 6.34999,2.64583 2.64585,2.64584 2.64585,6.35 z"
       id="path1-3"
       style="fill:#808080;fill-opacity:1;stroke:#808080;stroke-width:2.8;stroke-dasharray:none;stroke-opacity:1" /></g></svg>
